<?xml version="1.0" encoding="UTF-8" standalone="no"?>
<!DOCTYPE svg PUBLIC "-//W3C//DTD SVG 1.1//EN" "http://www.w3.org/Graphics/SVG/1.1/DTD/svg11.dtd">
<svg width="100%" height="100%" viewBox="0 0 813 813" version="1.1" xmlns="http://www.w3.org/2000/svg" xmlns:xlink="http://www.w3.org/1999/xlink" xml:space="preserve" xmlns:serif="http://www.serif.com/" style="fill-rule:evenodd;clip-rule:evenodd;stroke-linejoin:round;stroke-miterlimit:2;">
    <g id="Layer1">
        <path d="M365.1,778.633C371.156,778.633 376.073,783.55 376.073,789.606C376.073,795.663 371.156,800.58 365.1,800.58C359.044,800.58 354.127,795.663 354.127,789.606C354.127,783.55 359.044,778.633 365.1,778.633ZM371.816,139.055C370.282,137.001 367.832,135.671 365.073,135.671C360.43,135.671 356.661,139.441 356.661,144.084L356.688,767.233C356.688,771.876 360.457,775.646 365.1,775.645C369.743,775.645 373.513,771.875 373.512,767.232L373.491,265.765L373.513,265.77C373.513,265.77 423.674,215.608 437.007,202.276C439.07,200.213 440.228,197.415 440.228,194.497C440.228,190.806 440.228,185.629 440.228,181.937C440.228,179.02 441.387,176.222 443.45,174.159C451.314,166.296 471.418,146.191 479.282,138.328C481.345,136.265 482.503,133.467 482.503,130.55C482.503,107.735 482.503,7 482.503,7C482.503,7 427.089,62.414 413.011,76.493C410.948,78.556 409.789,81.353 409.789,84.271C409.789,87.885 409.789,92.912 409.789,96.526C409.789,99.444 408.63,102.241 406.567,104.304L371.816,139.055Z" style="fill:rgb(255,204,51);"/>
        <path d="M412.049,595.416L412.049,595.416C412.049,595.416 412.049,409.131 412.049,409.13C412.049,405.911 410.11,403.008 407.135,401.776C404.161,400.544 400.737,401.225 398.461,403.502L322.935,479.027C309.251,492.711 287.065,492.711 273.381,479.027L197.856,403.502C195.579,401.225 192.155,400.544 189.181,401.776C186.207,403.008 184.267,405.911 184.267,409.131L184.267,667.823L184.269,667.823L184.269,775.885C186.884,778.659 188.487,782.397 188.487,786.507C188.487,795.058 181.545,802 172.994,802C164.443,802 157.501,795.058 157.501,786.507C157.501,782.397 159.104,778.659 161.719,775.885L161.719,691.043C161.719,684.149 156.122,678.551 149.228,678.551C142.334,678.551 136.737,684.149 136.737,691.043C136.737,691.043 136.737,703.018 136.737,703.018C136.737,706.001 135.552,708.861 133.444,710.969C131.335,713.078 128.475,714.263 125.493,714.263C125.472,714.263 125.452,714.263 125.431,714.263C122.449,714.263 119.589,713.078 117.481,710.969C115.372,708.861 114.187,706.001 114.187,703.018L114.187,305.319C114.187,291.147 122.724,278.37 135.818,272.947C148.912,267.523 163.983,270.521 174.004,280.542L290.41,396.948C292.465,399.002 295.252,400.157 298.158,400.157C301.065,400.157 303.853,399.002 305.908,396.946L422.312,280.542C432.334,270.521 447.405,267.523 460.499,272.947C473.592,278.37 482.129,291.147 482.129,305.319L482.129,634.938C484.744,637.713 486.348,641.451 486.348,645.56C486.348,654.111 479.405,661.054 470.854,661.054C462.303,661.054 455.361,654.111 455.361,645.56C455.361,641.451 456.965,637.713 459.58,634.938L459.58,613.321C459.58,606.427 453.983,600.83 447.089,600.83C440.196,600.83 434.599,606.427 434.599,613.321L434.599,709.137C437.214,711.911 438.817,715.649 438.817,719.759C438.817,728.309 431.875,735.252 423.324,735.252C414.773,735.252 407.831,728.309 407.831,719.759C407.831,715.649 409.435,711.911 412.049,709.137L412.049,595.416ZM125.116,721.001C133.667,721.001 140.609,727.944 140.609,736.495C140.609,745.046 133.667,751.988 125.116,751.988C116.565,751.988 109.623,745.046 109.623,736.495C109.623,727.944 116.565,721.001 125.116,721.001Z" style="fill:rgb(0,102,51);"/>
        <path d="M690.857,776.995L605.6,776.995C564.495,776.995 522.187,742.089 522.5,693.981C522.596,679.199 522.5,661.983 522.5,647.2C522.5,597.96 564.297,565.177 605.952,564.098C633.036,563.396 690.748,564.101 690.748,564.101C697.646,564.185 703.315,558.653 703.399,551.754C703.483,544.856 697.95,539.187 691.052,539.103C691.052,539.103 632.692,538.397 605.304,539.106C551.309,540.506 497.5,583.372 497.5,647.2C497.5,661.931 497.596,679.088 497.5,693.819C497.093,756.453 552.083,801.995 605.6,801.995L690.857,801.995C697.756,801.995 703.357,796.394 703.357,789.495C703.357,782.596 697.756,776.995 690.857,776.995Z" style="fill:rgb(255,204,51);"/>
        <g transform="matrix(1,0,0,1,0,-271.653)">
            <path d="M690.857,776.995L605.6,776.995C564.495,776.995 522.187,742.089 522.5,693.981C522.596,679.199 522.5,661.983 522.5,647.2C522.5,597.96 564.297,565.177 605.952,564.098C633.036,563.396 690.748,564.101 690.748,564.101C697.646,564.185 703.315,558.653 703.399,551.754C703.483,544.856 697.95,539.187 691.052,539.103C691.052,539.103 632.692,538.397 605.304,539.106C551.309,540.506 497.5,583.372 497.5,647.2C497.5,661.931 497.596,679.088 497.5,693.819C497.093,756.453 552.083,801.995 605.6,801.995L690.857,801.995C697.756,801.995 703.357,796.394 703.357,789.495C703.357,782.596 697.756,776.995 690.857,776.995Z" style="fill:rgb(255,204,51);"/>
        </g>
    </g>
</svg>
